<svg width="18" height="19" viewBox="0 0 18 19" fill="none" xmlns="http://www.w3.org/2000/svg">
<path d="M14.8362 2.29727C14.5735 2.30118 14.313 2.34387 14.0628 2.42394C13.9362 1.59728 13.0295 0.970608 11.8828 0.970608C11.5352 0.959114 11.1887 1.01573 10.8628 1.13727C10.6556 0.772321 10.3503 0.472712 9.98145 0.272403C9.61264 0.0720942 9.19511 -0.020906 8.77615 0.00394172C8.4102 -0.0123421 8.04565 0.0590187 7.71285 0.212085C7.38004 0.365151 7.08861 0.595494 6.86282 0.883942C6.48161 0.657992 6.04594 0.540431 5.60282 0.543942C5.07188 0.508807 4.54832 0.683197 4.1445 1.02969C3.74067 1.37618 3.48876 1.86716 3.44282 2.39728V3.00394C2.73615 3.27061 0.702817 4.20394 0.169484 6.23061C-0.36385 8.25728 0.39615 11.5639 1.96282 14.0839C3.016 15.7259 4.34698 17.1719 5.89615 18.3573C5.99899 18.4314 6.12269 18.4711 6.24948 18.4706H13.1428C13.2755 18.4692 13.4042 18.4247 13.5095 18.3439C14.7066 17.2407 15.5724 15.8255 16.0095 14.2573C16.7655 12.1924 17.1185 10.0018 17.0495 7.80394V4.13728C16.9954 3.60166 16.7331 3.1087 16.3192 2.76455C15.9052 2.42041 15.3726 2.2526 14.8362 2.29727V2.29727ZM15.8495 7.80394C15.9222 9.88163 15.5894 11.9536 14.8695 13.9039C14.4923 15.1657 13.8204 16.3196 12.9095 17.2706H6.42282C5.06676 16.1973 3.8957 14.9092 2.95615 13.4573C1.37615 10.8839 0.95615 7.97061 1.30282 6.53061C1.48457 6.03157 1.76892 5.57617 2.13752 5.19379C2.50612 4.81141 2.95078 4.51055 3.44282 4.31061V9.41061C3.44282 9.56974 3.50603 9.72235 3.61855 9.83487C3.73108 9.94739 3.88369 10.0106 4.04282 10.0106C4.20195 10.0106 4.35456 9.94739 4.46708 9.83487C4.5796 9.72235 4.64282 9.56974 4.64282 9.41061V2.39728C4.64282 2.08394 5.03615 1.73061 5.61615 1.73061C6.19615 1.73061 6.60948 2.07728 6.60948 2.39728V6.21061H7.80948V1.67728C7.80948 1.49061 8.19615 1.20394 8.78282 1.20394C9.36948 1.20394 9.80282 1.52394 9.80282 1.70394V6.29728H11.0028V2.47061L11.1162 2.39061C11.3514 2.24305 11.6252 2.16879 11.9028 2.17728C12.5228 2.17728 12.9028 2.47061 12.9028 2.63061V6.96394H14.1095V3.71728C14.3293 3.5678 14.5904 3.49087 14.8562 3.49728C15.4295 3.49728 15.8695 3.83727 15.8695 4.12394L15.8495 7.80394Z" fill="#423F3F"/>
</svg>
